<?xml version="1.0" encoding="UTF-8"?>
<svg version="1.1" xmlns="http://www.w3.org/2000/svg" width="100" height="100">
<path d="M0 0 C10.78527154 7.340192 19.63745503 18.85282679 22.3125 31.875 C23.16527615 42.95168005 23.86192389 54.93500251 18.3125 64.875 C17.79171875 65.81472656 17.2709375 66.75445312 16.734375 67.72265625 C9.63087933 79.6098123 0.06088155 87.29206263 -12.9609375 92.078125 C-28.73573808 95.4513528 -43.4953631 93.36329447 -57 84.625 C-67.66961732 76.58387836 -74.68103605 65.95311816 -77.6875 52.875 C-79.27064921 36.72617284 -76.87241513 22.89448844 -66.6875 9.875 C-49.25941193 -9.27475361 -22.1179314 -12.88689392 0 0 Z " fill="#175EFB" transform="translate(77.6875,7.125)"/>
<path d="M0 0 C17.16 0 34.32 0 52 0 C52 2.97 52 5.94 52 9 C45.07 9 38.14 9 31 9 C31 26.16 31 43.32 31 61 C27.7 61 24.4 61 21 61 C21 43.84 21 26.68 21 9 C14.07 9 7.14 9 0 9 C0 6.03 0 3.06 0 0 Z " fill="#FCFDFE" transform="translate(24,22)"/>
<path d="M0 0 C1.32 0.33 2.64 0.66 4 1 C2.21427748 2.83947337 0.42197551 4.67157741 -1.375 6.5 C-1.88289062 7.02464844 -2.39078125 7.54929687 -2.9140625 8.08984375 C-4.23832604 9.43153181 -5.61605865 10.71995815 -7 12 C-7.66 12 -8.32 12 -9 12 C-7.55575365 8.76138697 -5.74227753 6.38030837 -3.375 3.75 C-2.74335938 3.04359375 -2.11171875 2.3371875 -1.4609375 1.609375 C-0.97882812 1.07828125 -0.49671875 0.5471875 0 0 Z " fill="#2868FB" transform="translate(17,11)"/>
</svg>
