<svg width="187" height="162" version="1.1" xmlns="http://www.w3.org/2000/svg" desc="Created with imagetracer.js version 1.2.6" ><path fill="rgb(36,54,90)" stroke="rgb(36,54,90)" stroke-width="1" opacity="1" d="M 15.5 1 Q 21.7 -0.8 23.5 2 L 46.5 2 Q 48.3 -0.8 54.5 1 L 55.5 2 L 102.5 2 L 103.5 1 L 112.5 1 Q 113.8 3.2 118.5 2 L 120.5 4 L 124 3 Q 125.6 5.1 125 10.5 L 124 12.5 L 125 13.5 L 125 32.5 L 126 33.5 L 126 45 Q 121.1 43.4 123 49 Q 125.7 47.9 125 50.5 L 121.5 56 L 119 55 Q 120 59.7 116.5 61 L 114.5 62 L 112.5 61 L 112.5 65 L 108 65.5 L 110 66.5 L 108 67 L 107.5 69 L 106.5 67 L 104.5 71 Q 103.3 68.8 98.5 70 L 98.5 71 Q 104.8 68.8 103 74.5 L 99 77 L 98.5 75 L 97 77.5 L 97.5 79 L 95 79.5 L 97 80.5 L 91.5 82 L 91 80 L 88.5 81 Q 85.8 79.8 88 78.5 L 88 37.5 L 86.5 32 L 85.5 33 L 6.5 33 L 2 31.5 Q 5.5 30 3 28.5 L 3 7.5 Q 0.2 8.1 1 5 Q 3.7 6.1 3 3.5 Q 4.3 0.7 5.5 3 L 15.5 1 Z M 98 71 L 96 73 L 98 73 L 98 71 Z " /><path fill="rgb(36,54,90)" stroke="rgb(36,54,90)" stroke-width="1" opacity="1" d="M 1.5 8 L 2 10.5 L 1 10.5 L 1.5 8 Z " /><path fill="rgb(36,54,90)" stroke="rgb(36,54,90)" stroke-width="1" opacity="1" d="M 1.5 21 L 2 30 L 0 29.5 L 1.5 21 Z " /><path fill="rgb(36,54,90)" stroke="rgb(36,54,90)" stroke-width="1" opacity="1" d="M 124.5 69 L 126 75.5 L 125 78.5 L 126 85 Q 123 83.8 124 87.5 L 122.5 90 L 124.5 89 L 123.5 91 L 121 89.5 Q 120.3 87.3 122.5 88 L 122.5 87 L 119 87 L 119 93.5 L 115 95.5 L 117 96.5 L 114 98.5 L 113.5 100 L 113 97 L 111 97.5 L 112 100.5 L 109.5 103 L 107 103 Q 108.1 100.3 105.5 101 L 103 102 L 105.5 106 L 107 105.5 L 106 108 L 101.5 111 Q 99.8 107.3 98 110.5 L 99 112.5 L 97.5 112 Q 94.9 111.2 96 114.5 L 95 117 L 89.5 120 L 87 119 L 86.5 121 L 54.5 121 L 52 120.5 L 53 119.5 L 50 116.5 L 51 113.5 L 50 111.5 L 51 111.5 L 51.5 113 L 52 105 Q 48.3 106.2 50 101 Q 53 102 52 99 L 54.5 99 Q 56.3 101.7 62.5 100 L 63.5 99 L 93.5 99 Q 94.8 101.2 96 98.5 L 97.5 96 L 100 97.5 L 99 93.5 L 103 90.5 L 102.5 89 L 108 88 L 107 85.5 L 111 82.5 Q 110.3 80.3 112.5 81 L 115 80 Q 114.3 76.2 117.5 75 L 123 72.5 Q 120.3 70.8 124.5 69 Z M 107 89 L 107 91 L 109 90 L 107 89 Z " /><path fill="rgb(36,54,90)" stroke="rgb(36,54,90)" stroke-width="1" opacity="1" d="M 89.5 82 L 91 85 Q 87.5 86.1 89.5 82 Z " /><path fill="rgb(36,54,90)" stroke="rgb(36,54,90)" stroke-width="1" opacity="1" d="M 124.5 105 L 126 108.5 Q 123.3 110.2 125 116.5 L 126 117.5 L 126 141 L 124 141.5 L 124 148.5 L 126 153.5 L 124 154 L 125 159 L 123 159 Q 124.1 161.7 121.5 161 L 121.5 159 Q 119.3 158.3 120 160.5 L 118.5 162 L 103.5 162 L 102.5 161 L 94.5 161 L 92.5 161 Q 87.1 162.9 88 159.5 L 87 157.5 L 88 156.5 L 88 141 Q 91 142 90 139 Q 86.3 140.3 88 134.5 L 88 132.5 L 88.5 131 L 89.5 135 L 91.5 132 L 94.5 134 L 98 131.5 L 97.5 133 L 99.5 132 L 101.5 133 Q 104.8 131.3 101 129.5 L 102 125 L 107.5 123 L 111 125 L 109 120.5 L 111 120.5 L 110 118.5 L 114.5 115 Q 115.8 117.3 117 114.5 L 116.5 113 Q 117.8 115.2 119 112.5 L 117.5 110 L 122.5 107 L 124.5 108 L 124 106.5 L 124.5 105 Z M 119 114 L 117 116 Q 116 118 119 117 L 119 114 Z " /><path fill="rgb(85,190,159)" stroke="rgb(85,190,159)" stroke-width="1" opacity="1" d="M 135 1 L 185 1.5 L 185 3.5 L 186 10.5 L 185 12.5 L 186 13.5 L 186 28.5 L 184 33 L 179 36.5 L 175.5 41 L 172 43.5 L 169.5 47 Q 167.3 46.3 168 48.5 L 164 51 L 164 53 Q 161.3 51.9 162 54.5 L 158 57 L 158 59 Q 155.3 57.9 156 60.5 L 152 63 L 149.5 67 Q 147.3 66.3 148 68.5 L 139.5 77 L 138 77 Q 139.1 80.3 135 79 L 135 55.5 L 137.5 53 L 140 52.5 L 139.5 51 L 142 50.5 L 141.5 49 Q 144.1 49.7 143 47 L 145 47 L 145 45 L 147.5 45 Q 145.8 43 149.5 41 Q 151.8 41.8 151 39.5 L 154 35 L 145.5 33 L 144.5 34 L 135 34 L 135 1 Z " /><path fill="rgb(85,190,159)" stroke="rgb(85,190,159)" stroke-width="1" opacity="1" d="M 51.5 47 L 72.5 47 L 73 48.5 L 74 49.5 L 74 84.5 L 75 86.5 L 74 89 L 50 88.5 L 50.5 87 Q 48.3 87.8 49 85.5 L 51 81.5 Q 47.2 78.3 49 69.5 L 50 68.5 L 51 53.5 L 50 50.5 L 54 48.5 Q 50.7 48.6 51.5 47 Z " /><path fill="rgb(85,190,159)" stroke="rgb(85,190,159)" stroke-width="1" opacity="1" d="M 52.5 131 L 53.5 133 L 54 131 L 74 131 L 74 138.5 L 73 140.5 L 74 141.5 L 74 156.5 L 75 158.5 L 74 161 L 70.5 162 L 53.5 162 L 51 161 Q 52.3 155.7 49 156.5 L 49 141 Q 51.7 142.1 51 139.5 L 50 133 Q 52.8 134 52.5 131 Z " /><path fill="rgb(60,70,88)" stroke="rgb(60,70,88)" stroke-width="1" opacity="0.8980392156862745" d="M 105.5 84 L 92.5 98 L 91 97.5 L 105.5 84 Z " /><path fill="rgb(60,70,88)" stroke="rgb(60,70,88)" stroke-width="1" opacity="0.8980392156862745" d="M 123.5 91 L 121.5 94 L 123.5 91 Z " /><path fill="rgb(60,70,88)" stroke="rgb(60,70,88)" stroke-width="1" opacity="0.8980392156862745" d="M 117.5 97 L 114.5 101 L 117.5 97 Z " /><path fill="rgb(60,70,88)" stroke="rgb(60,70,88)" stroke-width="1" opacity="0.8980392156862745" d="M 109.5 105 L 107.5 108 L 109.5 105 Z " /><path fill="rgb(60,70,88)" stroke="rgb(60,70,88)" stroke-width="1" opacity="0.8980392156862745" d="M 120.5 105 L 119.5 107 L 120.5 105 Z " /><path fill="rgb(60,70,88)" stroke="rgb(60,70,88)" stroke-width="1" opacity="0.8980392156862745" d="M 117.5 108 L 113.5 113 L 117.5 108 Z " /><path fill="rgb(60,70,88)" stroke="rgb(60,70,88)" stroke-width="1" opacity="0.8980392156862745" d="M 103.5 122 L 96.5 130 L 103.5 122 Z " /><path fill="rgb(36,49,71)" stroke="rgb(36,49,71)" stroke-width="1" opacity="0.996078431372549" d="M 1 0 L 103 0.5 L 2.5 1 L 0.5 3 L 1 1.5 L 1 0 Z " /><path fill="rgb(36,49,71)" stroke="rgb(36,49,71)" stroke-width="1" opacity="0.996078431372549" d="M 111.5 0 L 120 0.5 L 111.5 1 L 111.5 0 Z " /><path fill="rgb(36,49,71)" stroke="rgb(36,49,71)" stroke-width="1" opacity="0.996078431372549" d="M 1.5 33 L 7 33.5 L 1.5 34 L 1.5 33 Z " /><path fill="rgb(36,49,71)" stroke="rgb(36,49,71)" stroke-width="1" opacity="0.996078431372549" d="M 39.5 33 L 47 33.5 L 39.5 34 L 39.5 33 Z " /><path fill="rgb(36,49,71)" stroke="rgb(36,49,71)" stroke-width="1" opacity="0.996078431372549" d="M 55.5 33 L 63 33.5 L 55.5 34 L 55.5 33 Z " /><path fill="rgb(36,49,71)" stroke="rgb(36,49,71)" stroke-width="1" opacity="0.996078431372549" d="M 71.5 33 L 80 33.5 L 71.5 34 L 71.5 33 Z " /><path fill="rgb(36,49,71)" stroke="rgb(36,49,71)" stroke-width="1" opacity="0.996078431372549" d="M 82.5 33 L 86 33.5 L 82.5 34 L 82.5 33 Z " /><path fill="rgb(36,49,71)" stroke="rgb(36,49,71)" stroke-width="1" opacity="0.996078431372549" d="M 87.5 37 L 88 77.5 L 87 77.5 L 87.5 37 Z " /><path fill="rgb(36,49,71)" stroke="rgb(36,49,71)" stroke-width="1" opacity="0.996078431372549" d="M 124 45 L 126 45.5 L 126 52.5 L 124 53.5 L 125 49.5 L 124 45 Z " /><path fill="rgb(36,49,71)" stroke="rgb(36,49,71)" stroke-width="1" opacity="0.996078431372549" d="M 120.5 55 L 121 56.5 L 119 57.5 L 120.5 55 Z " /><path fill="rgb(36,49,71)" stroke="rgb(36,49,71)" stroke-width="1" opacity="0.996078431372549" d="M 115.5 61 L 113.5 64 L 115.5 61 Z " /><path fill="rgb(36,49,71)" stroke="rgb(36,49,71)" stroke-width="1" opacity="0.996078431372549" d="M 110.5 66 L 108.5 69 L 108 67 L 110.5 66 Z " /><path fill="rgb(36,49,71)" stroke="rgb(36,49,71)" stroke-width="1" opacity="0.996078431372549" d="M 125.5 67 L 123.5 70 L 123 68 L 125.5 67 Z " /><path fill="rgb(36,49,71)" stroke="rgb(36,49,71)" stroke-width="1" opacity="0.996078431372549" d="M 121.5 69 L 122 70.5 L 119 72.5 L 120 74.5 L 118 73.5 L 121.5 69 Z " /><path fill="rgb(36,49,71)" stroke="rgb(36,49,71)" stroke-width="1" opacity="0.996078431372549" d="M 125.5 73 L 126 74.5 L 124 75.5 L 125.5 73 Z " /><path fill="rgb(36,49,71)" stroke="rgb(36,49,71)" stroke-width="1" opacity="0.996078431372549" d="M 114.5 75 L 115 76.5 L 112.5 80 L 111 79.5 L 114.5 75 Z " /><path fill="rgb(36,49,71)" stroke="rgb(36,49,71)" stroke-width="1" opacity="0.996078431372549" d="M 99.5 77 L 97.5 80 L 99.5 77 Z " /><path fill="rgb(36,49,71)" stroke="rgb(36,49,71)" stroke-width="1" opacity="0.996078431372549" d="M 87.5 80 L 88 83.5 L 87 83.5 L 87.5 80 Z " /><path fill="rgb(36,49,71)" stroke="rgb(36,49,71)" stroke-width="1" opacity="0.996078431372549" d="M 109.5 80 L 106.5 84 L 109.5 80 Z " /><path fill="rgb(36,49,71)" stroke="rgb(36,49,71)" stroke-width="1" opacity="0.996078431372549" d="M 95.5 81 L 92.5 85 L 93 83.5 Q 92.3 81.3 94.5 82 L 95.5 81 Z " /><path fill="rgb(36,49,71)" stroke="rgb(36,49,71)" stroke-width="1" opacity="0.996078431372549" d="M 109.5 83 L 108.5 85 L 109.5 83 Z " /><path fill="rgb(36,49,71)" stroke="rgb(36,49,71)" stroke-width="1" opacity="0.996078431372549" d="M 105.5 85 L 106 86.5 L 102.5 89 L 105.5 85 Z " /><path fill="rgb(36,49,71)" stroke="rgb(36,49,71)" stroke-width="1" opacity="0.996078431372549" d="M 125.5 85 L 126 86.5 L 118.5 96 L 121.5 91 L 119.5 92 L 119 89.5 L 120.5 87 L 122 87.5 L 120 88 Q 118.9 90.7 121.5 90 L 125.5 85 Z " /><path fill="rgb(36,49,71)" stroke="rgb(36,49,71)" stroke-width="1" opacity="0.996078431372549" d="M 99.5 91 L 98 93.5 L 96.5 96 L 95 96.5 L 96 98.5 L 94 99.5 L 94.5 98 L 92.5 99 L 50 99 L 50 108.5 L 51 110.5 L 49.5 118 L 49 98 L 92.5 98 L 99.5 91 Z " /><path fill="rgb(36,49,71)" stroke="rgb(36,49,71)" stroke-width="1" opacity="0.996078431372549" d="M 99.5 95 L 100 97 L 98 96.5 L 99.5 95 Z " /><path fill="rgb(36,49,71)" stroke="rgb(36,49,71)" stroke-width="1" opacity="0.996078431372549" d="M 111.5 97 L 114 100.5 L 110 103.5 L 113 100.5 L 112 99.5 L 111.5 97 Z " /><path fill="rgb(36,49,71)" stroke="rgb(36,49,71)" stroke-width="1" opacity="0.996078431372549" d="M 116.5 97 L 115.5 99 L 114 98.5 L 116.5 97 Z " /><path fill="rgb(36,49,71)" stroke="rgb(36,49,71)" stroke-width="1" opacity="0.996078431372549" d="M 106.5 101 L 107 103.5 L 105.5 105 L 103.5 102 Q 105 104.5 106.5 101 Z " /><path fill="rgb(36,49,71)" stroke="rgb(36,49,71)" stroke-width="1" opacity="0.996078431372549" d="M 122.5 104 L 122 105.5 L 121.5 107 L 121 105.5 L 122.5 104 Z " /><path fill="rgb(36,49,71)" stroke="rgb(36,49,71)" stroke-width="1" opacity="0.996078431372549" d="M 119.5 107 L 120.5 109 L 119.5 108 L 117 109.5 L 119.5 107 Z " /><path fill="rgb(36,49,71)" stroke="rgb(36,49,71)" stroke-width="1" opacity="0.996078431372549" d="M 105.5 108 L 101.5 113 L 99.5 114 L 100 112.5 L 99.5 111 L 97 113.5 L 98 116.5 L 96.5 118 Q 94.3 118.8 95 116.5 Q 98.5 115 96 113.5 L 99.5 110 L 101.5 112 L 105.5 108 Z " /><path fill="rgb(36,49,71)" stroke="rgb(36,49,71)" stroke-width="1" opacity="0.996078431372549" d="M 125.5 109 L 126 116.5 L 125 116.5 L 125.5 109 Z " /><path fill="rgb(36,49,71)" stroke="rgb(36,49,71)" stroke-width="1" opacity="0.996078431372549" d="M 116.5 111 L 117.5 113 L 116.5 112 L 113 114.5 Q 112.3 112.3 114.5 113 L 116.5 111 Z " /><path fill="rgb(36,49,71)" stroke="rgb(36,49,71)" stroke-width="1" opacity="0.996078431372549" d="M 116.5 114 L 118.5 117 L 116.5 114 Z " /><path fill="rgb(36,49,71)" stroke="rgb(36,49,71)" stroke-width="1" opacity="0.996078431372549" d="M 51.5 118 L 52.5 120 Q 49.7 120.7 51.5 118 Z " /><path fill="rgb(36,49,71)" stroke="rgb(36,49,71)" stroke-width="1" opacity="0.996078431372549" d="M 49.5 119 L 50 121.5 L 49 121.5 L 49.5 119 Z " /><path fill="rgb(36,49,71)" stroke="rgb(36,49,71)" stroke-width="1" opacity="0.996078431372549" d="M 93.5 119 L 95 119.5 L 93 120 Q 94.1 122.7 91.5 122 L 93.5 119 Z " /><path fill="rgb(36,49,71)" stroke="rgb(36,49,71)" stroke-width="1" opacity="0.996078431372549" d="M 108.5 119 L 105.5 123 L 108.5 119 Z " /><path fill="rgb(36,49,71)" stroke="rgb(36,49,71)" stroke-width="1" opacity="0.996078431372549" d="M 88.5 120 L 90 120.5 L 88.5 122 L 54.5 122 L 54.5 121 L 87.5 121 L 88.5 120 Z " /><path fill="rgb(36,49,71)" stroke="rgb(36,49,71)" stroke-width="1" opacity="0.996078431372549" d="M 108.5 122 L 110.5 125 L 108.5 122 Z " /><path fill="rgb(36,49,71)" stroke="rgb(36,49,71)" stroke-width="1" opacity="0.996078431372549" d="M 103.5 123 L 101.5 126 L 103.5 123 Z " /><path fill="rgb(36,49,71)" stroke="rgb(36,49,71)" stroke-width="1" opacity="0.996078431372549" d="M 100.5 127 L 98 130.5 L 98.5 132 L 97 130.5 L 100.5 127 Z " /><path fill="rgb(36,49,71)" stroke="rgb(36,49,71)" stroke-width="1" opacity="0.996078431372549" d="M 100.5 130 Q 103.5 131.5 100.5 133 L 100.5 130 Z " /><path fill="rgb(36,49,71)" stroke="rgb(36,49,71)" stroke-width="1" opacity="0.996078431372549" d="M 87.5 134 L 88 156.5 L 87 156.5 L 87.5 134 Z " /><path fill="rgb(36,49,71)" stroke="rgb(36,49,71)" stroke-width="1" opacity="0.996078431372549" d="M 125.5 141 L 126 152.5 L 125 152.5 L 125.5 141 Z " /><path fill="rgb(36,49,71)" stroke="rgb(36,49,71)" stroke-width="1" opacity="0.996078431372549" d="M 87.5 159 L 88 161.5 L 87 161.5 L 87.5 159 Z " /><path fill="rgb(0,0,0)" stroke="rgb(0,0,0)" stroke-width="1" opacity="0" d="M 126 0 L 133.5 0 L 134 0.5 L 134 36 L 150.5 36 L 150 37.5 L 134 54.5 L 134 83.5 L 185.5 33 L 187 33.5 L 187 162 L 126 162 L 126 100.5 L 123.5 102 L 98 126.5 L 96.5 129 L 87 130 L 87 162 L 75 162 L 75 130 L 49 130 L 49 162 L 0 162 L 0 35 L 87 35 L 87 89.5 L 89.5 90 L 117.5 62 L 119 62 L 121.5 58 L 124 56.5 L 124 55 L 126 54.5 L 126 0 Z M 49 46 L 49 90 L 75 90 L 75 46 L 49 46 Z M 126 63 L 99 90 L 99 91 L 91 98 L 49 98 L 49 122 L 95 122 L 126 91 L 126 63 Z " /><path fill="rgb(117,182,165)" stroke="rgb(117,182,165)" stroke-width="1" opacity="0.9803921568627451" d="M 134 0 L 187 0 L 187 32 L 185.5 32 L 134.5 83 L 134 55.5 L 151 38.5 L 152 35 L 134 35 L 134 0 Z M 135 1 L 135 34 L 145 34 L 146 33 L 154 35 L 151 40 Q 152 42 150 41 Q 146 43 148 45 L 145 45 L 145 47 L 143 47 Q 144 50 142 49 L 142 51 L 140 51 L 140 53 L 138 53 L 135 56 L 135 79 Q 139 80 138 77 L 140 77 L 148 69 Q 147 66 150 67 L 152 63 L 156 61 Q 155 58 158 59 L 158 57 L 162 55 Q 161 52 164 53 L 164 51 L 168 49 Q 167 46 170 47 L 172 44 L 176 41 L 179 37 L 184 33 L 186 29 L 186 14 L 185 13 L 186 11 L 185 4 L 185 2 L 135 1 Z " /><path fill="rgb(117,182,165)" stroke="rgb(117,182,165)" stroke-width="1" opacity="0.9803921568627451" d="M 49 46 L 75 46 L 75 84.5 L 74 84.5 L 74 49.5 L 73 47 L 51 47.5 L 54 48.5 L 50 50.5 L 51 58.5 L 50 59.5 L 49.5 69 L 49 46 Z " /><path fill="rgb(117,182,165)" stroke="rgb(117,182,165)" stroke-width="1" opacity="0.9803921568627451" d="M 124.5 54 L 117.5 62 L 124.5 54 Z " /><path fill="rgb(117,182,165)" stroke="rgb(117,182,165)" stroke-width="1" opacity="0.9803921568627451" d="M 112.5 66 L 110.5 69 L 112.5 66 Z " /><path fill="rgb(117,182,165)" stroke="rgb(117,182,165)" stroke-width="1" opacity="0.9803921568627451" d="M 104.5 74 L 101.5 78 L 104.5 74 Z " /><path fill="rgb(117,182,165)" stroke="rgb(117,182,165)" stroke-width="1" opacity="0.9803921568627451" d="M 49.5 79 L 51 82.5 L 49.5 85 L 49.5 79 Z " /><path fill="rgb(117,182,165)" stroke="rgb(117,182,165)" stroke-width="1" opacity="0.9803921568627451" d="M 49 87 L 51 87.5 L 50.5 89 L 73.5 89 L 74 87.5 L 75 87.5 L 74.5 90 L 49 90 L 49 87 Z " /><path fill="rgb(117,182,165)" stroke="rgb(117,182,165)" stroke-width="1" opacity="0.9803921568627451" d="M 125.5 100 L 121.5 105 L 125.5 100 Z " /><path fill="rgb(117,182,165)" stroke="rgb(117,182,165)" stroke-width="1" opacity="0.9803921568627451" d="M 49 130 L 75 130 L 75 156.5 L 74 156.5 L 74 141.5 L 73 139.5 L 74 138.5 L 74 131 L 54.5 131 L 54 132.5 L 53 132.5 L 52.5 131 L 52 133 Q 48 131.6 50 138.5 L 51 141 L 49 140.5 L 49 130 Z " /><path fill="rgb(117,182,165)" stroke="rgb(117,182,165)" stroke-width="1" opacity="0.9803921568627451" d="M 49 157 L 51 157 L 51 161 L 52.5 161 L 52.5 162 L 49 162 L 49 157 Z " /><path fill="rgb(117,182,165)" stroke="rgb(117,182,165)" stroke-width="1" opacity="0.9803921568627451" d="M 74.5 159 L 75 162 L 71 161.5 L 74 161 L 74.5 159 Z " /><path fill="rgb(46,59,86)" stroke="rgb(46,59,86)" stroke-width="1" opacity="0.996078431372549" d="M 0.5 0 L 1.5 2 L 4.5 1 L 6.5 1 L 15 1.5 L 5.5 3 L 4.5 2 L 1 5.5 L 1 7 L 3 7.5 L 3 28.5 L 2 28.5 L 1.5 21 L 0.5 29 L 0 5.5 L 0 1.5 L 0.5 0 Z M 2 8 L 1 11 L 2 11 L 2 8 Z " /><path fill="rgb(46,59,86)" stroke="rgb(46,59,86)" stroke-width="1" opacity="0.996078431372549" d="M 103.5 0 L 111 0.5 L 102.5 2 L 55.5 2 L 55.5 1 L 102.5 1 L 103.5 0 Z " /><path fill="rgb(46,59,86)" stroke="rgb(46,59,86)" stroke-width="1" opacity="0.996078431372549" d="M 120.5 0 L 123 1.5 Q 122.2 -1.5 126 0 L 125 4.5 L 126 5.5 L 126 32.5 L 125 32.5 L 125 13.5 L 124 11.5 Q 126.2 10.3 125 5.5 L 123.5 2 L 119.5 3 L 113 1.5 L 120.5 0 Z " /><path fill="rgb(46,59,86)" stroke="rgb(46,59,86)" stroke-width="1" opacity="0.996078431372549" d="M 23.5 1 L 47 1.5 L 23.5 2 L 23.5 1 Z " /><path fill="rgb(46,59,86)" stroke="rgb(46,59,86)" stroke-width="1" opacity="0.996078431372549" d="M 1.5 30 L 2 32.5 L 0 33.5 L 1.5 30 Z " /><path fill="rgb(46,59,86)" stroke="rgb(46,59,86)" stroke-width="1" opacity="0.996078431372549" d="M 86.5 32 L 87 34.5 L 86 34.5 L 86.5 32 Z " /><path fill="rgb(46,59,86)" stroke="rgb(46,59,86)" stroke-width="1" opacity="0.996078431372549" d="M 7.5 33 L 39 33.5 L 7.5 34 L 7.5 33 Z " /><path fill="rgb(46,59,86)" stroke="rgb(46,59,86)" stroke-width="1" opacity="0.996078431372549" d="M 47.5 33 L 55 33.5 L 47.5 34 L 47.5 33 Z " /><path fill="rgb(46,59,86)" stroke="rgb(46,59,86)" stroke-width="1" opacity="0.996078431372549" d="M 63.5 33 L 71 33.5 L 63.5 34 L 63.5 33 Z " /><path fill="rgb(46,59,86)" stroke="rgb(46,59,86)" stroke-width="1" opacity="0.996078431372549" d="M 123.5 45 L 124 48.5 L 123 48.5 L 123.5 45 Z " /><path fill="rgb(46,59,86)" stroke="rgb(46,59,86)" stroke-width="1" opacity="0.996078431372549" d="M 119.5 55 L 120.5 57 L 123 55.5 Q 121 60 119 56.5 L 119.5 55 Z " /><path fill="rgb(46,59,86)" stroke="rgb(46,59,86)" stroke-width="1" opacity="0.996078431372549" d="M 114.5 59 L 115 60.5 L 114 62.5 L 117 61.5 L 111.5 67 L 110.5 66 L 108 65.5 L 113 64.5 L 112.5 61 Q 115 61.7 114.5 59 Z " /><path fill="rgb(46,59,86)" stroke="rgb(46,59,86)" stroke-width="1" opacity="0.996078431372549" d="M 125.5 65 L 126 67 L 122 68.5 L 123 70.5 L 120.5 74 L 119.5 72 L 122 70.5 L 121 68.5 L 125.5 65 Z " /><path fill="rgb(46,59,86)" stroke="rgb(46,59,86)" stroke-width="1" opacity="0.996078431372549" d="M 106.5 67 L 107 69 L 109 69.5 L 103 74.5 L 103 72.5 L 103 71 L 98 71 Q 99.1 73.7 96.5 73 L 98.5 70 Q 103.3 68.8 104.5 71 L 106.5 67 Z " /><path fill="rgb(46,59,86)" stroke="rgb(46,59,86)" stroke-width="1" opacity="0.996078431372549" d="M 125.5 70 L 126 72.5 L 125 72.5 L 125.5 70 Z " /><path fill="rgb(46,59,86)" stroke="rgb(46,59,86)" stroke-width="1" opacity="0.996078431372549" d="M 117.5 72 L 117.5 74 L 119 74.5 L 116 75 L 114.5 78 L 115 76.5 L 117.5 72 Z " /><path fill="rgb(46,59,86)" stroke="rgb(46,59,86)" stroke-width="1" opacity="0.996078431372549" d="M 98.5 75 L 99.5 78 L 101 77.5 L 96 81.5 L 96.5 80 L 95 79.5 L 96.5 79 Q 97.7 81.3 99 78.5 L 97 77.5 L 98.5 75 Z " /><path fill="rgb(46,59,86)" stroke="rgb(46,59,86)" stroke-width="1" opacity="0.996078431372549" d="M 125.5 76 L 126 78.5 L 125 78.5 L 125.5 76 Z " /><path fill="rgb(46,59,86)" stroke="rgb(46,59,86)" stroke-width="1" opacity="0.996078431372549" d="M 110.5 79 L 112.5 80 L 114.5 79 L 114.5 80 L 111 81 Q 109.9 83.7 112.5 83 L 112.5 84 L 110.5 85 L 110.5 83 Q 107.2 81.9 108 84.5 L 108 86.5 L 105.5 89 L 103 88.5 L 107 86.5 L 106 84.5 L 110.5 79 Z " /><path fill="rgb(46,59,86)" stroke="rgb(46,59,86)" stroke-width="1" opacity="0.996078431372549" d="M 89.5 80 L 91 80.5 Q 88.3 81.6 89 85 L 91.5 84 Q 94.5 85.5 91.5 87 L 89.5 86 L 90 87.5 L 89.5 89 L 88.5 87 L 87 87.5 Q 89.2 86.2 88 81.5 L 89.5 80 Z " /><path fill="rgb(46,59,86)" stroke="rgb(46,59,86)" stroke-width="1" opacity="0.996078431372549" d="M 92.5 81 L 95 81.5 L 91.5 83 L 92.5 81 Z " /><path fill="rgb(46,59,86)" stroke="rgb(46,59,86)" stroke-width="1" opacity="0.996078431372549" d="M 124.5 85 L 126 87.5 L 125.5 90 L 124 86.5 L 124.5 85 Z " /><path fill="rgb(46,59,86)" stroke="rgb(46,59,86)" stroke-width="1" opacity="0.996078431372549" d="M 101.5 89 Q 106 91 102.5 93 L 102.5 91 L 100 90.5 L 101.5 89 Z " /><path fill="rgb(46,59,86)" stroke="rgb(46,59,86)" stroke-width="1" opacity="0.996078431372549" d="M 108.5 89 L 107.5 91 L 108.5 89 Z " /><path fill="rgb(46,59,86)" stroke="rgb(46,59,86)" stroke-width="1" opacity="0.996078431372549" d="M 119.5 90 L 122 91.5 L 120 92 L 119.5 94 L 119 92.5 L 119.5 90 Z " /><path fill="rgb(46,59,86)" stroke="rgb(46,59,86)" stroke-width="1" opacity="0.996078431372549" d="M 110.5 91 L 109.5 93 L 110.5 91 Z " /><path fill="rgb(46,59,86)" stroke="rgb(46,59,86)" stroke-width="1" opacity="0.996078431372549" d="M 99.5 92 L 98.5 94 L 99.5 92 Z " /><path fill="rgb(46,59,86)" stroke="rgb(46,59,86)" stroke-width="1" opacity="0.996078431372549" d="M 97.5 95 L 99 95.5 L 95.5 97 L 95.5 96 L 97.5 95 Z " /><path fill="rgb(46,59,86)" stroke="rgb(46,59,86)" stroke-width="1" opacity="0.996078431372549" d="M 116.5 95 L 117.5 97 L 116.5 95 Z " /><path fill="rgb(46,59,86)" stroke="rgb(46,59,86)" stroke-width="1" opacity="0.996078431372549" d="M 102.5 98 L 103 99.5 L 100.5 101 L 100.5 100 Q 103 100.7 102.5 98 Z " /><path fill="rgb(46,59,86)" stroke="rgb(46,59,86)" stroke-width="1" opacity="0.996078431372549" d="M 50 99 Q 53 98 52 101 Q 49 102 50 99 Z " /><path fill="rgb(46,59,86)" stroke="rgb(46,59,86)" stroke-width="1" opacity="0.996078431372549" d="M 55.5 99 L 63 99.5 L 55.5 100 L 55.5 99 Z " /><path fill="rgb(46,59,86)" stroke="rgb(46,59,86)" stroke-width="1" opacity="0.996078431372549" d="M 124.5 102 L 126 105.5 L 124 105.5 L 125 107.5 L 123.5 108 L 122 105.5 L 124.5 102 Z " /><path fill="rgb(46,59,86)" stroke="rgb(46,59,86)" stroke-width="1" opacity="0.996078431372549" d="M 107 103 Q 110.7 101.5 110 104.5 L 107 106.5 L 107 103 Z " /><path fill="rgb(46,59,86)" stroke="rgb(46,59,86)" stroke-width="1" opacity="0.996078431372549" d="M 50 105 L 52 105.5 L 52 112.5 L 50.5 115 L 50 113.5 L 51 109.5 L 50 105 Z " /><path fill="rgb(46,59,86)" stroke="rgb(46,59,86)" stroke-width="1" opacity="0.996078431372549" d="M 103.5 107 Q 106.5 108.5 103.5 110 L 103.5 107 Z " /><path fill="rgb(46,59,86)" stroke="rgb(46,59,86)" stroke-width="1" opacity="0.996078431372549" d="M 98.5 113 L 101 113.5 L 97.5 116 L 95 115.5 L 98 114.5 L 98.5 113 Z " /><path fill="rgb(46,59,86)" stroke="rgb(46,59,86)" stroke-width="1" opacity="0.996078431372549" d="M 117.5 113 L 118.5 115 L 117.5 113 Z " /><path fill="rgb(46,59,86)" stroke="rgb(46,59,86)" stroke-width="1" opacity="0.996078431372549" d="M 114.5 114 Q 116.8 113.3 116 115.5 L 114.5 114 Z " /><path fill="rgb(46,59,86)" stroke="rgb(46,59,86)" stroke-width="1" opacity="0.996078431372549" d="M 110 116 L 112 116.5 Q 108.5 118 111 119.5 L 110.5 121 Q 109.3 118.8 108 121.5 L 108.5 123 L 110 122.5 Q 108.8 125.2 107.5 123 L 103.5 125 L 104.5 123 L 106 122.5 L 105.5 121 Q 106.8 123.3 108 120.5 L 107.5 119 L 109 119.5 L 110 116 Z " /><path fill="rgb(46,59,86)" stroke="rgb(46,59,86)" stroke-width="1" opacity="0.996078431372549" d="M 50.5 117 L 52 120.5 L 50 121.5 L 49 118.5 L 50.5 117 Z " /><path fill="rgb(46,59,86)" stroke="rgb(46,59,86)" stroke-width="1" opacity="0.996078431372549" d="M 94.5 117 L 95.5 119 L 89.5 122 L 90 120.5 Q 89.3 118.3 91.5 119 L 94.5 117 Z " /><path fill="rgb(46,59,86)" stroke="rgb(46,59,86)" stroke-width="1" opacity="0.996078431372549" d="M 54.5 119 L 54 120.5 L 53.5 122 L 53 120.5 L 54.5 119 Z " /><path fill="rgb(46,59,86)" stroke="rgb(46,59,86)" stroke-width="1" opacity="0.996078431372549" d="M 87 119 L 89 119.5 L 87 120.5 L 87 119 Z " /><path fill="rgb(46,59,86)" stroke="rgb(46,59,86)" stroke-width="1" opacity="0.996078431372549" d="M 100.5 126 Q 102.8 125.3 102 127.5 L 99 127.5 L 100.5 126 Z " /><path fill="rgb(46,59,86)" stroke="rgb(46,59,86)" stroke-width="1" opacity="0.996078431372549" d="M 100.5 129 L 101.5 131 L 100 130.5 L 99.5 132 L 98.5 130 L 100.5 129 Z " /><path fill="rgb(46,59,86)" stroke="rgb(46,59,86)" stroke-width="1" opacity="0.996078431372549" d="M 87.5 130 L 95.5 132 Q 96.8 129.8 98 132.5 Q 96.3 130.9 94.5 134 L 92.5 132 L 90 133.5 L 89.5 135 L 89 131 L 87.5 130 Z " /><path fill="rgb(46,59,86)" stroke="rgb(46,59,86)" stroke-width="1" opacity="0.996078431372549" d="M 88 139 Q 91 138 90 141 Q 87 142 88 139 Z " /><path fill="rgb(46,59,86)" stroke="rgb(46,59,86)" stroke-width="1" opacity="0.996078431372549" d="M 124.5 141 L 125 148.5 L 124 148.5 L 124.5 141 Z " /><path fill="rgb(46,59,86)" stroke="rgb(46,59,86)" stroke-width="1" opacity="0.996078431372549" d="M 124 154 L 126 154.5 L 126 162 L 122 161.5 L 123 159 Q 125.7 160.1 125 157.5 L 123.5 158 L 122 157.5 L 124 157 L 124 154 Z " /><path fill="rgb(46,59,86)" stroke="rgb(46,59,86)" stroke-width="1" opacity="0.996078431372549" d="M 120 159 L 122 159.5 L 121 162 L 119 161.5 L 120 159 Z " /><path fill="rgb(46,59,86)" stroke="rgb(46,59,86)" stroke-width="1" opacity="0.996078431372549" d="M 88.5 161 L 93 161.5 L 88.5 162 L 88.5 161 Z " /><path fill="rgb(46,59,86)" stroke="rgb(46,59,86)" stroke-width="1" opacity="0.996078431372549" d="M 94.5 161 L 103 161.5 L 94.5 162 L 94.5 161 Z " /><path fill="rgb(59,73,100)" stroke="rgb(59,73,100)" stroke-width="1" opacity="0.9725490196078431" d="M 0.5 34 L 86 34.5 L 0.5 35 L 0.5 34 Z " /><path fill="rgb(59,73,100)" stroke="rgb(59,73,100)" stroke-width="1" opacity="0.9725490196078431" d="M 118.5 59 L 117.5 61 L 118.5 59 Z " /><path fill="rgb(59,73,100)" stroke="rgb(59,73,100)" stroke-width="1" opacity="0.9725490196078431" d="M 125.5 64 L 124 66.5 L 126 68.5 L 125.5 70 L 123 66.5 L 125.5 64 Z " /><path fill="rgb(59,73,100)" stroke="rgb(59,73,100)" stroke-width="1" opacity="0.9725490196078431" d="M 110.5 67 L 109.5 69 L 110.5 67 Z " /><path fill="rgb(59,73,100)" stroke="rgb(59,73,100)" stroke-width="1" opacity="0.9725490196078431" d="M 120.5 69 L 118.5 72 L 120.5 69 Z " /><path fill="rgb(59,73,100)" stroke="rgb(59,73,100)" stroke-width="1" opacity="0.9725490196078431" d="M 102.5 75 L 101.5 77 L 102.5 75 Z " /><path fill="rgb(59,73,100)" stroke="rgb(59,73,100)" stroke-width="1" opacity="0.9725490196078431" d="M 113.5 76 L 111.5 79 L 113.5 76 Z " /><path fill="rgb(59,73,100)" stroke="rgb(59,73,100)" stroke-width="1" opacity="0.9725490196078431" d="M 89.5 86 L 90.5 88 L 88 87.5 L 89.5 86 Z " /><path fill="rgb(59,73,100)" stroke="rgb(59,73,100)" stroke-width="1" opacity="0.9725490196078431" d="M 123.5 89 L 124.5 91 L 123.5 89 Z " /><path fill="rgb(59,73,100)" stroke="rgb(59,73,100)" stroke-width="1" opacity="0.9725490196078431" d="M 118.5 94 L 118.5 97 Q 115.5 95.5 118.5 94 Z " /><path fill="rgb(59,73,100)" stroke="rgb(59,73,100)" stroke-width="1" opacity="0.9725490196078431" d="M 112.5 100 L 114 101.5 L 110.5 105 L 110 102.5 L 112.5 100 Z " /><path fill="rgb(59,73,100)" stroke="rgb(59,73,100)" stroke-width="1" opacity="0.9725490196078431" d="M 104.5 102 L 107 102.5 L 106.5 105 L 103 103.5 L 104.5 102 Z " /><path fill="rgb(59,73,100)" stroke="rgb(59,73,100)" stroke-width="1" opacity="0.9725490196078431" d="M 106.5 107 L 107 108.5 L 105 109.5 L 106.5 107 Z " /><path fill="rgb(59,73,100)" stroke="rgb(59,73,100)" stroke-width="1" opacity="0.9725490196078431" d="M 98.5 110 L 101 110.5 L 99.5 113 L 98.5 110 Z " /><path fill="rgb(59,73,100)" stroke="rgb(59,73,100)" stroke-width="1" opacity="0.9725490196078431" d="M 102.5 110 L 103.5 112 L 102.5 110 Z " /><path fill="rgb(59,73,100)" stroke="rgb(59,73,100)" stroke-width="1" opacity="0.9725490196078431" d="M 116.5 110 L 118.5 113 L 117.5 112 L 115 113.5 L 116.5 110 Z " /><path fill="rgb(59,73,100)" stroke="rgb(59,73,100)" stroke-width="1" opacity="0.9725490196078431" d="M 96.5 112 L 97.5 114 L 96.5 112 Z " /><path fill="rgb(59,73,100)" stroke="rgb(59,73,100)" stroke-width="1" opacity="0.9725490196078431" d="M 101.5 113 L 100.5 115 L 101.5 113 Z " /><path fill="rgb(59,73,100)" stroke="rgb(59,73,100)" stroke-width="1" opacity="0.9725490196078431" d="M 112.5 113 L 112.5 116 Q 110.7 113.3 109 117.5 L 105 122.5 L 104 122.5 L 112.5 113 Z " /><path fill="rgb(59,73,100)" stroke="rgb(59,73,100)" stroke-width="1" opacity="0.9725490196078431" d="M 118.5 115 L 117.5 117 L 118.5 115 Z " /><path fill="rgb(59,73,100)" stroke="rgb(59,73,100)" stroke-width="1" opacity="0.9725490196078431" d="M 96.5 116 L 99 116.5 L 95 119.5 Q 98.1 117.8 96.5 116 Z " /><path fill="rgb(59,73,100)" stroke="rgb(59,73,100)" stroke-width="1" opacity="0.9725490196078431" d="M 110.5 123 L 109.5 125 L 110.5 123 Z " /><path fill="rgb(59,73,100)" stroke="rgb(59,73,100)" stroke-width="1" opacity="0.9725490196078431" d="M 98.5 128 L 96.5 131 L 89 130.5 L 96.5 130 L 98.5 128 Z " /><path fill="rgb(192,217,219)" stroke="rgb(192,217,219)" stroke-width="1" opacity="0.24313725490196078" d="M 185.5 32 L 187 32.5 L 134.5 84 L 185.5 32 Z " /><path fill="rgb(192,217,219)" stroke="rgb(192,217,219)" stroke-width="1" opacity="0.24313725490196078" d="M 134.5 35 L 151.5 35 L 152 36.5 L 134.5 55 L 150 38.5 L 151 36.5 L 134.5 36 L 134.5 35 Z " /><path fill="rgb(192,217,219)" stroke="rgb(192,217,219)" stroke-width="1" opacity="0.24313725490196078" d="M 123.5 56 L 122.5 58 L 123.5 56 Z " /><path fill="rgb(192,217,219)" stroke="rgb(192,217,219)" stroke-width="1" opacity="0.24313725490196078" d="M 116.5 62 L 115.5 64 L 116.5 62 Z " /><path fill="rgb(192,217,219)" stroke="rgb(192,217,219)" stroke-width="1" opacity="0.24313725490196078" d="M 125.5 63 L 99.5 90 L 125.5 63 Z " /><path fill="rgb(192,217,219)" stroke="rgb(192,217,219)" stroke-width="1" opacity="0.24313725490196078" d="M 109.5 69 L 105.5 74 L 109.5 69 Z " /><path fill="rgb(192,217,219)" stroke="rgb(192,217,219)" stroke-width="1" opacity="0.24313725490196078" d="M 98.5 80 L 89.5 90 L 98.5 80 Z " /><path fill="rgb(192,217,219)" stroke="rgb(192,217,219)" stroke-width="1" opacity="0.24313725490196078" d="M 97.5 91 L 92.5 97 L 97.5 91 Z " /><path fill="rgb(192,217,219)" stroke="rgb(192,217,219)" stroke-width="1" opacity="0.24313725490196078" d="M 124.5 91 L 94.5 122 L 124.5 91 Z " /><path fill="rgb(192,217,219)" stroke="rgb(192,217,219)" stroke-width="1" opacity="0.24313725490196078" d="M 122.5 102 L 98.5 127 L 122.5 102 Z " /></svg>